<svg width="324" height="124" viewBox="0 0 324 124" fill="none" xmlns="http://www.w3.org/2000/svg">
<path d="M63.586 52C64.1164 52.0001 64.625 52.2109 65 52.586L69.414 57C69.7891 57.375 69.9999 57.8836 70 58.414V70C70 70.5304 69.7893 71.0391 69.4142 71.4142C69.0391 71.7893 68.5304 72 68 72H56C55.4696 72 54.9609 71.7893 54.5858 71.4142C54.2107 71.0391 54 70.5304 54 70V54C54 53.4696 54.2107 52.9609 54.5858 52.5858C54.9609 52.2107 55.4696 52 56 52H63.586ZM62 54H56V70H68V60H63.5C63.1022 60 62.7206 59.842 62.4393 59.5607C62.158 59.2794 62 58.8978 62 58.5V54ZM61.207 62.173C61.3945 62.3605 61.4998 62.6148 61.4998 62.88C61.4998 63.1452 61.3945 63.3995 61.207 63.587L59.793 65.001L61.207 66.416C61.3892 66.6046 61.49 66.8572 61.4877 67.1194C61.4854 67.3816 61.3802 67.6324 61.1948 67.8178C61.0094 68.0032 60.7586 68.1084 60.4964 68.1107C60.2342 68.113 59.9816 68.0122 59.793 67.83L57.672 65.708C57.4845 65.5205 57.3792 65.2662 57.3792 65.001C57.3792 64.7358 57.4845 64.4815 57.672 64.294L59.792 62.173C59.8849 62.08 59.9952 62.0063 60.1166 61.9559C60.238 61.9056 60.3681 61.8797 60.4995 61.8797C60.6309 61.8797 60.761 61.9056 60.8824 61.9559C61.0038 62.0063 61.1141 62.08 61.207 62.173ZM64.207 62.173L66.328 64.294C66.5155 64.4815 66.6208 64.7358 66.6208 65.001C66.6208 65.2662 66.5155 65.5205 66.328 65.708L64.208 67.83C64.0205 68.0176 63.7661 68.1231 63.5009 68.1232C63.2356 68.1233 62.9811 68.018 62.7935 67.8305C62.6059 67.643 62.5004 67.3886 62.5003 67.1234C62.5002 66.8581 62.6055 66.6036 62.793 66.416L64.207 65L62.793 63.586C62.6108 63.3974 62.51 63.1448 62.5123 62.8826C62.5146 62.6204 62.6198 62.3696 62.8052 62.1842C62.9906 61.9988 63.2414 61.8936 63.5036 61.8913C63.7658 61.889 64.0184 61.9898 64.207 62.172V62.173ZM64 54.414V58H67.586L64 54.414Z" fill="#E2E2FF"/>
<path d="M163.586 52C164.116 52.0001 164.625 52.2109 165 52.586L169.414 57C169.789 57.375 170 57.8836 170 58.414V70C170 70.5304 169.789 71.0391 169.414 71.4142C169.039 71.7893 168.53 72 168 72H156C155.47 72 154.961 71.7893 154.586 71.4142C154.211 71.0391 154 70.5304 154 70V54C154 53.4696 154.211 52.9609 154.586 52.5858C154.961 52.2107 155.47 52 156 52H163.586ZM162 54H156V70H168V60H163.5C163.102 60 162.721 59.842 162.439 59.5607C162.158 59.2794 162 58.8978 162 58.5V54ZM161.207 62.173C161.394 62.3605 161.5 62.6148 161.5 62.88C161.5 63.1452 161.394 63.3995 161.207 63.587L159.793 65.001L161.207 66.416C161.389 66.6046 161.49 66.8572 161.488 67.1194C161.485 67.3816 161.38 67.6324 161.195 67.8178C161.009 68.0032 160.759 68.1084 160.496 68.1107C160.234 68.113 159.982 68.0122 159.793 67.83L157.672 65.708C157.485 65.5205 157.379 65.2662 157.379 65.001C157.379 64.7358 157.485 64.4815 157.672 64.294L159.792 62.173C159.885 62.08 159.995 62.0063 160.117 61.9559C160.238 61.9056 160.368 61.8797 160.499 61.8797C160.631 61.8797 160.761 61.9056 160.882 61.9559C161.004 62.0063 161.114 62.08 161.207 62.173ZM164.207 62.173L166.328 64.294C166.515 64.4815 166.621 64.7358 166.621 65.001C166.621 65.2662 166.515 65.5205 166.328 65.708L164.208 67.83C164.02 68.0176 163.766 68.1231 163.501 68.1232C163.236 68.1233 162.981 68.018 162.794 67.8305C162.606 67.643 162.5 67.3886 162.5 67.1234C162.5 66.8581 162.605 66.6036 162.793 66.416L164.207 65L162.793 63.586C162.611 63.3974 162.51 63.1448 162.512 62.8826C162.515 62.6204 162.62 62.3696 162.805 62.1842C162.991 61.9988 163.241 61.8936 163.504 61.8913C163.766 61.889 164.018 61.9898 164.207 62.172V62.173ZM164 54.414V58H167.586L164 54.414Z" fill="#E2E2FF"/>
<path d="M109.107 55.448C109.705 53.698 112.123 53.645 112.832 55.289L112.892 55.449L113.699 57.809C113.884 58.3502 114.183 58.8455 114.575 59.2614C114.968 59.6773 115.445 60.0042 115.975 60.22L116.192 60.301L118.552 61.107C120.302 61.705 120.355 64.123 118.712 64.832L118.552 64.892L116.192 65.699C115.651 65.8838 115.155 66.1826 114.739 66.5753C114.323 66.9679 113.996 67.4452 113.78 67.975L113.699 68.191L112.893 70.552C112.295 72.302 109.877 72.355 109.169 70.712L109.107 70.552L108.301 68.192C108.116 67.6506 107.817 67.1551 107.425 66.739C107.032 66.3229 106.555 65.9959 106.025 65.78L105.809 65.699L103.449 64.893C101.698 64.295 101.645 61.877 103.289 61.169L103.449 61.107L105.809 60.301C106.35 60.1161 106.846 59.8172 107.261 59.4246C107.677 59.0319 108.004 58.5547 108.22 58.025L108.301 57.809L109.107 55.448ZM111 56.094L110.194 58.454C109.912 59.2793 109.454 60.0333 108.852 60.6635C108.249 61.2937 107.516 61.7849 106.704 62.103L106.454 62.194L104.094 63L106.454 63.806C107.279 64.0876 108.033 64.5457 108.663 65.1485C109.294 65.7512 109.785 66.4841 110.103 67.296L110.194 67.546L111 69.906L111.806 67.546C112.088 66.7207 112.546 65.9667 113.148 65.3365C113.751 64.7063 114.484 64.2151 115.296 63.897L115.546 63.807L117.906 63L115.546 62.194C114.721 61.9124 113.967 61.4543 113.337 60.8515C112.706 60.2488 112.215 59.5159 111.897 58.704L111.807 58.454L111 56.094ZM119 52C119.187 52 119.37 52.0525 119.529 52.1515C119.688 52.2505 119.816 52.392 119.898 52.56L119.946 52.677L120.296 53.703L121.323 54.053C121.51 54.1167 121.675 54.2346 121.795 54.3918C121.916 54.549 121.987 54.7384 121.999 54.936C122.012 55.1336 121.966 55.3305 121.866 55.5018C121.767 55.673 121.619 55.8109 121.441 55.898L121.323 55.946L120.297 56.296L119.947 57.323C119.883 57.5104 119.765 57.6747 119.608 57.795C119.451 57.9153 119.261 57.9862 119.064 57.9987C118.866 58.0113 118.669 57.9648 118.498 57.8654C118.327 57.7659 118.189 57.6179 118.102 57.44L118.054 57.323L117.704 56.297L116.677 55.947C116.49 55.8833 116.325 55.7654 116.205 55.6082C116.084 55.451 116.013 55.2616 116.001 55.064C115.988 54.8664 116.034 54.6695 116.134 54.4982C116.233 54.327 116.381 54.1891 116.559 54.102L116.677 54.054L117.703 53.704L118.053 52.677C118.12 52.4794 118.248 52.3079 118.418 52.1865C118.588 52.0651 118.791 51.9999 119 52Z" fill="#E2E2FF"/>
<path d="M114 118C114.255 118 114.5 118.098 114.685 118.273C114.871 118.448 114.982 118.687 114.997 118.941C115.012 119.196 114.929 119.446 114.766 119.642C114.602 119.837 114.37 119.963 114.117 119.993L114 120H104C103.745 120 103.5 119.902 103.315 119.727C103.129 119.552 103.018 119.313 103.003 119.059C102.988 118.804 103.071 118.554 103.234 118.358C103.398 118.163 103.63 118.037 103.883 118.007L104 118H114ZM120 113C120.265 113 120.52 113.105 120.707 113.293C120.895 113.48 121 113.735 121 114C121 114.265 120.895 114.52 120.707 114.707C120.52 114.895 120.265 115 120 115H104C103.735 115 103.48 114.895 103.293 114.707C103.105 114.52 103 114.265 103 114C103 113.735 103.105 113.48 103.293 113.293C103.48 113.105 103.735 113 104 113H120ZM114 108C114.255 108 114.5 108.098 114.685 108.273C114.871 108.448 114.982 108.687 114.997 108.941C115.012 109.196 114.929 109.446 114.766 109.642C114.602 109.837 114.37 109.963 114.117 109.993L114 110H104C103.745 110 103.5 109.902 103.315 109.727C103.129 109.552 103.018 109.313 103.003 109.059C102.988 108.804 103.071 108.554 103.234 108.358C103.398 108.163 103.63 108.037 103.883 108.007L104 108H114ZM120 103C120.255 103 120.5 103.098 120.685 103.273C120.871 103.448 120.982 103.687 120.997 103.941C121.012 104.196 120.929 104.446 120.766 104.642C120.602 104.837 120.37 104.963 120.117 104.993L120 105H104C103.745 105 103.5 104.902 103.315 104.727C103.129 104.552 103.018 104.313 103.003 104.059C102.988 103.804 103.071 103.554 103.234 103.358C103.398 103.163 103.63 103.037 103.883 103.007L104 103H120Z" fill="#E2E2FF"/>
<path d="M163.586 2C164.116 2.00011 164.625 2.2109 165 2.586L169.414 7C169.789 7.37499 170 7.88361 170 8.414V20C170 20.5304 169.789 21.0391 169.414 21.4142C169.039 21.7893 168.53 22 168 22H156C155.47 22 154.961 21.7893 154.586 21.4142C154.211 21.0391 154 20.5304 154 20V4C154 3.46957 154.211 2.96086 154.586 2.58579C154.961 2.21071 155.47 2 156 2H163.586ZM162 4H156V20H168V10H163.5C163.102 10 162.721 9.84196 162.439 9.56066C162.158 9.27936 162 8.89782 162 8.5V4ZM165 14C165.265 14 165.52 14.1054 165.707 14.2929C165.895 14.4804 166 14.7348 166 15C166 15.2652 165.895 15.5196 165.707 15.7071C165.52 15.8946 165.265 16 165 16H159C158.735 16 158.48 15.8946 158.293 15.7071C158.105 15.5196 158 15.2652 158 15C158 14.7348 158.105 14.4804 158.293 14.2929C158.48 14.1054 158.735 14 159 14H165ZM160 10C160.265 10 160.52 10.1054 160.707 10.2929C160.895 10.4804 161 10.7348 161 11C161 11.2652 160.895 11.5196 160.707 11.7071C160.52 11.8946 160.265 12 160 12H159C158.735 12 158.48 11.8946 158.293 11.7071C158.105 11.5196 158 11.2652 158 11C158 10.7348 158.105 10.4804 158.293 10.2929C158.48 10.1054 158.735 10 159 10H160ZM164 4.414V8H167.586L164 4.414Z" fill="#E2E2FF"/>
<path d="M213.586 52C214.056 52.0001 214.51 52.1654 214.87 52.467L215 52.586L219.414 57C219.746 57.332 219.951 57.7703 219.992 58.238L220 58.414V70C220 70.5046 219.81 70.9906 219.467 71.3605C219.123 71.7305 218.653 71.9572 218.15 71.995L218 72H206C205.495 72.0002 205.009 71.8096 204.639 71.4665C204.269 71.1234 204.043 70.6532 204.005 70.15L204 70V54C204 53.4954 204.19 53.0094 204.533 52.6395C204.877 52.2695 205.347 52.0428 205.85 52.005L206 52H213.586ZM212 54H206V70H218V60H213.5C213.102 60 212.721 59.842 212.439 59.5607C212.158 59.2794 212 58.8978 212 58.5V54ZM214 54.414V58H217.586L214 54.414Z" fill="#E2E2FF"/>
<path fill-rule="evenodd" clip-rule="evenodd" d="M263.586 52C264.056 52.0001 264.51 52.1654 264.87 52.467L265 52.586L269.414 57C269.746 57.332 269.951 57.7703 269.992 58.238L270 58.414V70C270 70.5046 269.81 70.9906 269.466 71.3605C269.123 71.7305 268.653 71.9572 268.15 71.995L268 72H256C255.495 72.0002 255.009 71.8096 254.639 71.4665C254.269 71.1234 254.043 70.6532 254.005 70.15L254 70V54C254 53.4954 254.19 53.0094 254.533 52.6395C254.877 52.2695 255.347 52.0428 255.85 52.005L256 52H263.586ZM262 54H256V70H268V60H263.5C263.127 60 262.768 59.8611 262.492 59.6104C262.216 59.3597 262.043 59.0152 262.007 58.644L262 58.5V54ZM262.988 61.848C263.228 63.371 264.024 64.7507 265.223 65.72C266.11 66.437 265.299 67.841 264.235 67.432C262.796 66.8784 261.204 66.8784 259.765 67.432C258.7 67.842 257.889 66.437 258.776 65.72C259.975 64.7508 260.771 63.371 261.011 61.848C261.189 60.721 262.811 60.722 262.988 61.848ZM261.998 64.152L261.31 65.348H262.69L261.998 64.152ZM264 54.414V58H267.586L264 54.414Z" fill="#E2E2FF"/>
<path d="M316.9 53C317.171 52.9999 317.433 53.0998 317.635 53.2807C317.836 53.4615 317.964 53.7106 317.994 53.98L318 54.1V57H319C319.765 57 320.502 57.2923 321.058 57.8173C321.615 58.3422 321.95 59.0601 321.995 59.824L322 60V67C322 67.5046 321.81 67.9906 321.466 68.3605C321.123 68.7305 320.653 68.9572 320.15 68.995L320 69H318V70.9C318 71.1711 317.9 71.4326 317.719 71.6345C317.538 71.8364 317.289 71.9644 317.02 71.994L316.9 72H307.1C306.829 72.0001 306.567 71.9002 306.365 71.7193C306.164 71.5385 306.036 71.2894 306.006 71.02L306 70.9V69H304C303.495 69.0002 303.009 68.8096 302.639 68.4665C302.269 68.1234 302.043 67.6532 302.005 67.15L302 67V60C302 59.2348 302.292 58.4985 302.817 57.9417C303.342 57.385 304.06 57.0499 304.824 57.005L305 57H306V54.1C306 53.8289 306.1 53.5674 306.281 53.3655C306.462 53.1636 306.711 53.0356 306.98 53.006L307.1 53H316.9ZM316 66H308V70H316V66ZM319 59H305C304.755 59 304.519 59.09 304.336 59.2527C304.153 59.4155 304.036 59.6397 304.007 59.883L304 60V67H306V65.1C306 64.8289 306.1 64.5674 306.281 64.3655C306.462 64.1636 306.711 64.0356 306.98 64.006L307.1 64H316.9C317.171 63.9999 317.433 64.0998 317.635 64.2807C317.836 64.4615 317.964 64.7106 317.994 64.98L318 65.1V67H320V60C320 59.7348 319.895 59.4804 319.707 59.2929C319.52 59.1054 319.265 59 319 59ZM317 60C317.255 60.0003 317.5 60.0979 317.685 60.2728C317.871 60.4478 317.982 60.687 317.997 60.9414C318.012 61.1958 317.929 61.4464 317.766 61.6418C317.602 61.8373 317.37 61.9629 317.117 61.993L317 62H315C314.745 61.9997 314.5 61.9021 314.315 61.7271C314.129 61.5522 314.018 61.313 314.003 61.0586C313.988 60.8042 314.071 60.5536 314.234 60.3582C314.398 60.1627 314.63 60.0371 314.883 60.007L315 60H317ZM316 55H308V57H316V55Z" fill="#E2E2FF"/>
<path d="M12 53C12.768 53 13.47 53.289 14 53.764C14.5495 53.2711 15.2619 52.999 16 53H17C17.2652 53 17.5196 53.1054 17.7071 53.2929C17.8946 53.4804 18 53.7348 18 54C18 54.2652 17.8946 54.5196 17.7071 54.7071C17.5196 54.8946 17.2652 55 17 55H16C15.7348 55 15.4804 55.1054 15.2929 55.2929C15.1054 55.4804 15 55.7348 15 56V68C15 68.2652 15.1054 68.5196 15.2929 68.7071C15.4804 68.8946 15.7348 69 16 69H17C17.2652 69 17.5196 69.1054 17.7071 69.2929C17.8946 69.4804 18 69.7348 18 70C18 70.2652 17.8946 70.5196 17.7071 70.7071C17.5196 70.8946 17.2652 71 17 71H16C15.232 71 14.53 70.711 14 70.236C13.4505 70.7289 12.7381 71.001 12 71H11C10.7348 71 10.4804 70.8946 10.2929 70.7071C10.1054 70.5196 10 70.2652 10 70C10 69.7348 10.1054 69.4804 10.2929 69.2929C10.4804 69.1054 10.7348 69 11 69H12C12.2652 69 12.5196 68.8946 12.7071 68.7071C12.8946 68.5196 13 68.2652 13 68V56C13 55.7348 12.8946 55.4804 12.7071 55.2929C12.5196 55.1054 12.2652 55 12 55H11C10.7348 55 10.4804 54.8946 10.2929 54.7071C10.1054 54.5196 10 54.2652 10 54C10 53.7348 10.1054 53.4804 10.2929 53.2929C10.4804 53.1054 10.7348 53 11 53H12ZM12 57V59H5V65H12V67H5C4.49542 67.0002 4.00943 66.8096 3.63945 66.4665C3.26947 66.1234 3.04284 65.6532 3.005 65.15L3 65V59C2.99984 58.4954 3.19041 58.0094 3.5335 57.6395C3.87659 57.2695 4.34684 57.0428 4.85 57.005L5 57H12ZM19 57C19.5046 56.9998 19.9906 57.1904 20.3605 57.5335C20.7305 57.8766 20.9572 58.3468 20.995 58.85L21 59V65C21.0002 65.5046 20.8096 65.9906 20.4665 66.3605C20.1234 66.7305 19.6532 66.9572 19.15 66.995L19 67H16V65H19V59H16V57H19Z" fill="#E2E2FF"/>
<path d="M38.3535 58.818L41.182 61.6465C41.2757 61.7403 41.3284 61.8674 41.3284 62C41.3284 62.1326 41.2757 62.2597 41.182 62.3535L38.3535 65.182C38.2592 65.2731 38.1329 65.3235 38.0018 65.3223C37.8707 65.3212 37.7453 65.2686 37.6526 65.1759C37.5599 65.0832 37.5073 64.9578 37.5062 64.8267C37.505 64.6956 37.5554 64.5693 37.6465 64.475L39.6215 62.5H33C32.8674 62.5 32.7402 62.4473 32.6464 62.3536C32.5527 62.2598 32.5 62.1326 32.5 62C32.5 61.8674 32.5527 61.7402 32.6464 61.6464C32.7402 61.5527 32.8674 61.5 33 61.5H39.6215L37.6465 59.525C37.5987 59.4789 37.5607 59.4237 37.5345 59.3627C37.5082 59.3017 37.4945 59.2361 37.4939 59.1697C37.4933 59.1033 37.5059 59.0375 37.5311 58.976C37.5562 58.9146 37.5934 58.8587 37.6403 58.8118C37.6873 58.7649 37.7431 58.7277 37.8045 58.7026C37.866 58.6775 37.9318 58.6648 37.9982 58.6654C38.0646 58.666 38.1302 58.6797 38.1912 58.7059C38.2522 58.7322 38.3074 58.7702 38.3535 58.818Z" fill="#E2E2FF"/>
<path d="M88.3535 58.818L91.182 61.6465C91.2757 61.7403 91.3284 61.8674 91.3284 62C91.3284 62.1326 91.2757 62.2597 91.182 62.3535L88.3535 65.182C88.2592 65.2731 88.1329 65.3235 88.0018 65.3223C87.8707 65.3212 87.7453 65.2686 87.6526 65.1759C87.5599 65.0832 87.5073 64.9578 87.5062 64.8267C87.505 64.6956 87.5554 64.5693 87.6465 64.475L89.6215 62.5H83C82.8674 62.5 82.7402 62.4473 82.6464 62.3536C82.5527 62.2598 82.5 62.1326 82.5 62C82.5 61.8674 82.5527 61.7402 82.6464 61.6464C82.7402 61.5527 82.8674 61.5 83 61.5H89.6215L87.6465 59.525C87.5987 59.4789 87.5607 59.4237 87.5344 59.3627C87.5082 59.3017 87.4945 59.2361 87.4939 59.1697C87.4933 59.1033 87.5059 59.0375 87.5311 58.976C87.5562 58.9146 87.5934 58.8587 87.6403 58.8118C87.6873 58.7649 87.7431 58.7277 87.8045 58.7026C87.866 58.6775 87.9318 58.6648 87.9982 58.6654C88.0646 58.666 88.1302 58.6797 88.1912 58.7059C88.2522 58.7322 88.3074 58.7702 88.3535 58.818Z" fill="#E2E2FF"/>
<path d="M138.354 58.818L141.182 61.6465C141.276 61.7403 141.328 61.8674 141.328 62C141.328 62.1326 141.276 62.2597 141.182 62.3535L138.354 65.182C138.259 65.2731 138.133 65.3235 138.002 65.3223C137.871 65.3212 137.745 65.2686 137.653 65.1759C137.56 65.0832 137.507 64.9578 137.506 64.8267C137.505 64.6956 137.555 64.5693 137.646 64.475L139.622 62.5H133C132.867 62.5 132.74 62.4473 132.646 62.3536C132.553 62.2598 132.5 62.1326 132.5 62C132.5 61.8674 132.553 61.7402 132.646 61.6464C132.74 61.5527 132.867 61.5 133 61.5H139.622L137.646 59.525C137.599 59.4789 137.561 59.4237 137.534 59.3627C137.508 59.3017 137.494 59.2361 137.494 59.1697C137.493 59.1033 137.506 59.0375 137.531 58.976C137.556 58.9146 137.593 58.8587 137.64 58.8118C137.687 58.7649 137.743 58.7277 137.805 58.7026C137.866 58.6775 137.932 58.6648 137.998 58.6654C138.065 58.666 138.13 58.6797 138.191 58.7059C138.252 58.7322 138.307 58.7702 138.354 58.818Z" fill="#E2E2FF"/>
<path d="M188.354 58.818L191.182 61.6465C191.276 61.7403 191.328 61.8674 191.328 62C191.328 62.1326 191.276 62.2597 191.182 62.3535L188.354 65.182C188.259 65.2731 188.133 65.3235 188.002 65.3223C187.871 65.3212 187.745 65.2686 187.653 65.1759C187.56 65.0832 187.507 64.9578 187.506 64.8267C187.505 64.6956 187.555 64.5693 187.646 64.475L189.622 62.5H183C182.867 62.5 182.74 62.4473 182.646 62.3536C182.553 62.2598 182.5 62.1326 182.5 62C182.5 61.8674 182.553 61.7402 182.646 61.6464C182.74 61.5527 182.867 61.5 183 61.5H189.622L187.646 59.525C187.599 59.4789 187.561 59.4237 187.534 59.3627C187.508 59.3017 187.494 59.2361 187.494 59.1697C187.493 59.1033 187.506 59.0375 187.531 58.976C187.556 58.9146 187.593 58.8587 187.64 58.8118C187.687 58.7649 187.743 58.7277 187.805 58.7026C187.866 58.6775 187.932 58.6648 187.998 58.6654C188.065 58.666 188.13 58.6797 188.191 58.7059C188.252 58.7322 188.307 58.7702 188.354 58.818Z" fill="#E2E2FF"/>
<path d="M238.354 58.818L241.182 61.6465C241.276 61.7403 241.328 61.8674 241.328 62C241.328 62.1326 241.276 62.2597 241.182 62.3535L238.354 65.182C238.259 65.2731 238.133 65.3235 238.002 65.3223C237.871 65.3212 237.745 65.2686 237.653 65.1759C237.56 65.0832 237.507 64.9578 237.506 64.8267C237.505 64.6956 237.555 64.5693 237.646 64.475L239.622 62.5H233C232.867 62.5 232.74 62.4473 232.646 62.3536C232.553 62.2598 232.5 62.1326 232.5 62C232.5 61.8674 232.553 61.7402 232.646 61.6464C232.74 61.5527 232.867 61.5 233 61.5H239.622L237.646 59.525C237.599 59.4789 237.561 59.4237 237.534 59.3627C237.508 59.3017 237.494 59.2361 237.494 59.1697C237.493 59.1033 237.506 59.0375 237.531 58.976C237.556 58.9146 237.593 58.8587 237.64 58.8118C237.687 58.7649 237.743 58.7277 237.805 58.7026C237.866 58.6775 237.932 58.6648 237.998 58.6654C238.065 58.666 238.13 58.6797 238.191 58.7059C238.252 58.7322 238.307 58.7702 238.354 58.818Z" fill="#E2E2FF"/>
<path d="M288.353 58.818L291.182 61.6465C291.276 61.7403 291.328 61.8674 291.328 62C291.328 62.1326 291.276 62.2597 291.182 62.3535L288.353 65.182C288.259 65.2731 288.133 65.3235 288.002 65.3223C287.871 65.3212 287.745 65.2686 287.653 65.1759C287.56 65.0832 287.507 64.9578 287.506 64.8267C287.505 64.6956 287.555 64.5693 287.647 64.475L289.621 62.5H283C282.867 62.5 282.74 62.4473 282.646 62.3536C282.553 62.2598 282.5 62.1326 282.5 62C282.5 61.8674 282.553 61.7402 282.646 61.6464C282.74 61.5527 282.867 61.5 283 61.5H289.621L287.647 59.525C287.599 59.4789 287.561 59.4237 287.534 59.3627C287.508 59.3017 287.494 59.2361 287.494 59.1697C287.493 59.1033 287.506 59.0375 287.531 58.976C287.556 58.9146 287.593 58.8587 287.64 58.8118C287.687 58.7649 287.743 58.7277 287.805 58.7026C287.866 58.6775 287.932 58.6648 287.998 58.6654C288.065 58.666 288.13 58.6797 288.191 58.7059C288.252 58.7322 288.307 58.7702 288.353 58.818Z" fill="#E2E2FF"/>
<path d="M108.818 85.6465L111.646 82.818C111.74 82.7243 111.867 82.6716 112 82.6716C112.133 82.6716 112.26 82.7243 112.354 82.818L115.182 85.6465C115.273 85.7408 115.323 85.8671 115.322 85.9982C115.321 86.1293 115.269 86.2547 115.176 86.3474C115.083 86.4401 114.958 86.4927 114.827 86.4938C114.696 86.495 114.569 86.4446 114.475 86.3535L112.5 84.3785V91C112.5 91.1326 112.447 91.2598 112.354 91.3536C112.26 91.4473 112.133 91.5 112 91.5C111.867 91.5 111.74 91.4473 111.646 91.3536C111.553 91.2598 111.5 91.1326 111.5 91V84.3785L109.525 86.3535C109.479 86.4013 109.424 86.4393 109.363 86.4656C109.302 86.4918 109.236 86.5055 109.17 86.5061C109.103 86.5067 109.037 86.4941 108.976 86.4689C108.915 86.4438 108.859 86.4066 108.812 86.3597C108.765 86.3127 108.728 86.2569 108.703 86.1955C108.677 86.134 108.665 86.0682 108.665 86.0018C108.666 85.9354 108.68 85.8698 108.706 85.8088C108.732 85.7478 108.77 85.6926 108.818 85.6465Z" fill="#E2E2FF"/>
<path d="M165.182 38.3535L162.354 41.182C162.26 41.2757 162.133 41.3284 162 41.3284C161.867 41.3284 161.74 41.2757 161.646 41.182L158.818 38.3535C158.727 38.2592 158.677 38.1329 158.678 38.0018C158.679 37.8707 158.731 37.7453 158.824 37.6526C158.917 37.5599 159.042 37.5073 159.173 37.5062C159.304 37.505 159.431 37.5554 159.525 37.6465L161.5 39.6215V33C161.5 32.8674 161.553 32.7402 161.646 32.6464C161.74 32.5527 161.867 32.5 162 32.5C162.133 32.5 162.26 32.5527 162.354 32.6464C162.447 32.7402 162.5 32.8674 162.5 33V39.6215L164.475 37.6465C164.521 37.5987 164.576 37.5607 164.637 37.5345C164.698 37.5082 164.764 37.4945 164.83 37.4939C164.897 37.4933 164.963 37.5059 165.024 37.5311C165.085 37.5562 165.141 37.5934 165.188 37.6403C165.235 37.6873 165.272 37.7431 165.297 37.8045C165.323 37.866 165.335 37.9318 165.335 37.9982C165.334 38.0646 165.32 38.1302 165.294 38.1912C165.268 38.2522 165.23 38.3074 165.182 38.3535Z" fill="#E2E2FF"/>
</svg>
